<!-- Generator: Adobe Illustrator 16.0.0, SVG Export Plug-In . SVG Version: 6.00 Build 0) --><svg xmlns="http://www.w3.org/2000/svg" xmlns:xlink="http://www.w3.org/1999/xlink" version="1.1" id="Calque_1" x="0px" y="0px" width="363px" height="111.333px" viewBox="0 0 363 111.333" xml:space="preserve"><metadata><?xpacket begin="﻿" id="W5M0MpCehiHzreSzNTczkc9d"?><?xpacket end="w"?></metadata><g><g><rect x="-4.483" y="-4.559" fill="#FFFFFF" width="162.428" height="110.33"/><path fill="#FFFFFF" d="M76.731,51.631"/></g><g><rect x="-1.359" y="-1.534" fill="#034EA2" width="156.181" height="104.122"/><path fill="#034EA2" d="M76.731,50.529"/></g><g><polygon fill="#FFF200" points="73.403,21.152 76.699,18.748 79.995,21.152 78.74,17.263 82.087,14.858 77.961,14.858 76.699,10.921 75.436,14.862 71.313,14.858 74.657,17.263 "/><polygon fill="#FFF200" points="56.349,25.734 59.644,23.33 62.938,25.734 61.686,21.845 65.031,19.44 60.905,19.44 59.642,15.499 58.379,19.444 54.255,19.44 57.601,21.845 "/><polygon fill="#FFF200" points="47.165,28.006 45.902,31.952 41.778,31.947 45.124,34.352 43.87,38.242 47.165,35.836 50.461,38.242 49.207,34.352 52.552,31.947 48.428,31.947 "/><polygon fill="#FFF200" points="42.587,52.87 45.881,55.275 44.629,51.385 47.974,48.98 43.85,48.98 42.587,45.04 41.325,48.989 37.199,48.98 40.546,51.385 39.292,55.275 "/><polygon fill="#FFF200" points="48.428,66.065 47.165,62.124 45.902,66.069 41.778,66.065 45.124,68.47 43.87,72.359 47.165,69.95 50.461,72.359 49.207,68.47 52.552,66.065 "/><polygon fill="#FFF200" points="60.931,78.568 59.668,74.631 58.407,78.572 54.281,78.568 57.626,80.973 56.375,84.862 59.67,82.457 62.963,84.862 61.711,80.973 65.057,78.568 "/><polygon fill="#FFF200" points="77.964,83.098 76.701,79.157 75.44,83.103 71.314,83.098 74.66,85.503 73.408,89.393 76.703,86.987 79.997,89.393 78.743,85.503 82.09,83.098 "/><polygon fill="#FFF200" points="94.997,78.568 93.736,74.631 92.472,78.572 88.35,78.568 91.693,80.973 90.441,84.862 93.736,82.457 97.032,84.862 95.776,80.973 99.123,78.568 "/><polygon fill="#FFF200" points="107.504,66.065 106.239,62.124 104.974,66.069 100.853,66.065 104.2,68.47 102.943,72.359 106.239,69.95 109.535,72.359 108.278,68.47 111.625,66.065 "/><polygon fill="#FFF200" points="116.156,48.933 112.03,48.933 110.765,44.992 109.504,48.938 105.378,48.933 108.726,51.338 107.474,55.228 110.765,52.818 114.061,55.228 112.809,51.338 "/><polygon fill="#FFF200" points="102.943,38.19 106.239,35.785 109.535,38.19 108.278,34.301 111.625,31.9 107.504,31.9 106.239,27.959 104.974,31.904 100.853,31.9 104.2,34.301 "/><polygon fill="#FFF200" points="93.784,15.503 92.523,19.449 88.397,19.44 91.74,21.85 90.488,25.739 93.788,23.33 97.079,25.739 95.827,21.85 99.175,19.44 95.044,19.44 "/></g></g><g><path d="M177.423,46.579l1.878,0.474c-0.394,1.542-1.103,2.719-2.125,3.529c-1.022,0.81-2.273,1.215-3.751,1.215 c-1.529,0-2.773-0.312-3.731-0.935c-0.959-0.623-1.688-1.524-2.188-2.706c-0.5-1.181-0.75-2.449-0.75-3.804 c0-1.478,0.282-2.767,0.847-3.867c0.565-1.101,1.368-1.936,2.411-2.507c1.042-0.571,2.189-0.857,3.441-0.857 c1.419,0,2.613,0.362,3.581,1.084c0.969,0.723,1.643,1.739,2.023,3.049l-1.849,0.436c-0.329-1.033-0.807-1.784-1.433-2.255 s-1.414-0.707-2.362-0.707c-1.091,0-2.002,0.262-2.734,0.784c-0.732,0.523-1.247,1.225-1.544,2.105s-0.445,1.79-0.445,2.725 c0,1.207,0.176,2.26,0.527,3.161s0.898,1.573,1.641,2.019s1.546,0.668,2.41,0.668c1.052,0,1.942-0.303,2.672-0.91 C176.671,48.673,177.166,47.772,177.423,46.579z"/><path d="M180.744,46.414c0-1.904,0.529-3.314,1.588-4.23c0.884-0.761,1.962-1.142,3.233-1.142c1.413,0,2.568,0.463,3.465,1.389 c0.897,0.926,1.346,2.206,1.346,3.838c0,1.323-0.198,2.364-0.595,3.122c-0.397,0.758-0.975,1.347-1.733,1.767 c-0.758,0.419-1.586,0.629-2.482,0.629c-1.439,0-2.603-0.461-3.49-1.384S180.744,48.15,180.744,46.414z M182.535,46.414 c0,1.316,0.287,2.302,0.861,2.957c0.574,0.655,1.297,0.983,2.169,0.983c0.864,0,1.584-0.329,2.158-0.988 c0.574-0.658,0.861-1.662,0.861-3.01c0-1.271-0.288-2.235-0.866-2.89c-0.577-0.655-1.296-0.982-2.153-0.982 c-0.872,0-1.595,0.326-2.169,0.978S182.535,45.097,182.535,46.414z"/><path d="M191.74,47.295v-1.752h5.354v1.752H191.74z"/><path d="M199.436,51.554v-8.925h-1.539v-1.355h1.539V40.18c0-0.69,0.062-1.204,0.185-1.539c0.168-0.452,0.463-0.818,0.886-1.099 s1.015-0.421,1.776-0.421c0.49,0,1.032,0.058,1.626,0.174l-0.262,1.52c-0.361-0.064-0.703-0.097-1.025-0.097 c-0.529,0-0.904,0.113-1.123,0.338c-0.22,0.226-0.329,0.649-0.329,1.269v0.948h2.004v1.355h-2.004v8.925H199.436z"/><path d="M211.265,51.554v-1.51c-0.8,1.162-1.888,1.743-3.262,1.743c-0.606,0-1.173-0.116-1.699-0.349 c-0.525-0.232-0.916-0.524-1.171-0.876s-0.435-0.783-0.537-1.292c-0.071-0.342-0.106-0.884-0.106-1.626v-6.37h1.742v5.702 c0,0.91,0.035,1.523,0.106,1.839c0.109,0.458,0.342,0.818,0.697,1.08c0.354,0.261,0.793,0.392,1.316,0.392 c0.522,0,1.013-0.134,1.471-0.402c0.459-0.268,0.783-0.632,0.974-1.094s0.285-1.131,0.285-2.009v-5.508h1.742v10.281H211.265z"/><path d="M215.554,51.554V41.273h1.568v1.462c0.755-1.129,1.846-1.694,3.272-1.694c0.619,0,1.188,0.111,1.708,0.334 s0.908,0.515,1.167,0.876c0.258,0.361,0.438,0.791,0.542,1.288c0.064,0.323,0.097,0.887,0.097,1.694v6.321h-1.742v-6.253 c0-0.71-0.068-1.241-0.204-1.592c-0.135-0.352-0.376-0.633-0.721-0.842c-0.346-0.21-0.75-0.315-1.215-0.315 c-0.742,0-1.383,0.236-1.922,0.707s-0.808,1.365-0.808,2.681v5.615H215.554z"/><path d="M233.25,51.554v-1.297c-0.651,1.02-1.61,1.53-2.875,1.53c-0.819,0-1.573-0.226-2.261-0.678 c-0.687-0.452-1.22-1.083-1.597-1.893c-0.378-0.81-0.566-1.741-0.566-2.792c0-1.026,0.171-1.957,0.513-2.793 s0.855-1.476,1.539-1.921c0.685-0.445,1.449-0.668,2.295-0.668c0.619,0,1.171,0.13,1.655,0.392 c0.483,0.261,0.877,0.602,1.181,1.021v-5.092h1.732v14.191H233.25z M227.742,46.424c0,1.316,0.277,2.3,0.832,2.952 c0.556,0.652,1.21,0.978,1.966,0.978c0.761,0,1.408-0.312,1.94-0.935c0.532-0.623,0.799-1.573,0.799-2.851 c0-1.407-0.271-2.439-0.813-3.098s-1.21-0.987-2.004-0.987c-0.774,0-1.421,0.316-1.94,0.948 C228.001,44.065,227.742,45.062,227.742,46.424z"/><path d="M244.644,48.244l1.801,0.223c-0.284,1.052-0.811,1.868-1.578,2.449c-0.769,0.581-1.749,0.871-2.943,0.871 c-1.504,0-2.695-0.463-3.576-1.389c-0.882-0.926-1.322-2.225-1.322-3.896c0-1.729,0.445-3.072,1.336-4.027s2.046-1.433,3.466-1.433 c1.375,0,2.498,0.468,3.369,1.403c0.871,0.936,1.307,2.252,1.307,3.95c0,0.104-0.003,0.258-0.01,0.465h-7.667 c0.064,1.129,0.384,1.994,0.959,2.594c0.574,0.6,1.29,0.9,2.148,0.9c0.639,0,1.185-0.168,1.636-0.503 C244.021,49.515,244.379,48.979,244.644,48.244z M238.922,45.427h5.741c-0.078-0.865-0.297-1.514-0.658-1.946 c-0.556-0.671-1.275-1.007-2.159-1.007c-0.801,0-1.473,0.268-2.019,0.803C239.283,43.813,238.981,44.53,238.922,45.427z"/><path d="M255.301,51.554v-1.297c-0.651,1.02-1.61,1.53-2.875,1.53c-0.819,0-1.573-0.226-2.261-0.678 c-0.687-0.452-1.22-1.083-1.597-1.893c-0.378-0.81-0.566-1.741-0.566-2.792c0-1.026,0.171-1.957,0.513-2.793 s0.855-1.476,1.539-1.921c0.685-0.445,1.449-0.668,2.295-0.668c0.619,0,1.171,0.13,1.655,0.392 c0.483,0.261,0.877,0.602,1.181,1.021v-5.092h1.732v14.191H255.301z M249.793,46.424c0,1.316,0.277,2.3,0.832,2.952 c0.556,0.652,1.21,0.978,1.966,0.978c0.761,0,1.408-0.312,1.94-0.935c0.532-0.623,0.799-1.573,0.799-2.851 c0-1.407-0.271-2.439-0.813-3.098s-1.21-0.987-2.004-0.987c-0.774,0-1.421,0.316-1.94,0.948 C250.053,44.065,249.793,45.062,249.793,46.424z"/><path d="M266.773,51.554h-1.617V37.363h1.743v5.063c0.735-0.923,1.674-1.384,2.816-1.384c0.633,0,1.231,0.127,1.796,0.382 s1.029,0.613,1.394,1.074c0.365,0.461,0.65,1.018,0.857,1.67c0.206,0.652,0.31,1.349,0.31,2.091c0,1.762-0.436,3.124-1.307,4.085 s-1.917,1.442-3.137,1.442c-1.214,0-2.165-0.507-2.855-1.52V51.554z M266.753,46.336c0,1.233,0.168,2.124,0.503,2.672 c0.549,0.897,1.291,1.346,2.227,1.346c0.762,0,1.42-0.331,1.975-0.992c0.556-0.662,0.833-1.647,0.833-2.958 c0-1.342-0.267-2.333-0.799-2.972c-0.532-0.639-1.176-0.958-1.931-0.958c-0.762,0-1.42,0.331-1.976,0.992 C267.031,44.128,266.753,45.084,266.753,46.336z"/><path d="M276.115,55.514l-0.193-1.636c0.381,0.103,0.713,0.155,0.997,0.155c0.387,0,0.696-0.064,0.929-0.193 c0.232-0.129,0.423-0.31,0.571-0.542c0.109-0.174,0.287-0.607,0.532-1.297c0.032-0.097,0.084-0.239,0.155-0.426l-3.901-10.3h1.878 l2.14,5.954c0.277,0.755,0.525,1.549,0.745,2.381c0.2-0.8,0.438-1.581,0.717-2.343l2.197-5.992h1.742l-3.911,10.455 c-0.419,1.129-0.745,1.907-0.978,2.333c-0.31,0.574-0.664,0.995-1.064,1.263c-0.4,0.268-0.878,0.402-1.433,0.402 C276.902,55.727,276.528,55.655,276.115,55.514z"/><path d="M295.417,49.996l0.252,1.539c-0.491,0.104-0.93,0.155-1.316,0.155c-0.633,0-1.123-0.101-1.472-0.3 c-0.349-0.2-0.594-0.463-0.736-0.789c-0.142-0.326-0.213-1.012-0.213-2.057v-5.915h-1.277v-1.355h1.277v-2.546l1.733-1.045v3.591 h1.752v1.355h-1.752v6.012c0,0.497,0.03,0.816,0.092,0.958c0.062,0.142,0.161,0.255,0.3,0.339c0.139,0.084,0.337,0.126,0.596,0.126 C294.846,50.063,295.101,50.041,295.417,49.996z"/><path d="M297.121,51.554V37.363h1.743v5.092c0.813-0.942,1.839-1.413,3.078-1.413c0.761,0,1.423,0.15,1.984,0.45 c0.562,0.3,0.963,0.715,1.205,1.244s0.363,1.297,0.363,2.304v6.515h-1.743v-6.515c0-0.871-0.188-1.505-0.565-1.902 c-0.378-0.397-0.912-0.595-1.603-0.595c-0.517,0-1.002,0.134-1.457,0.401c-0.455,0.268-0.779,0.631-0.973,1.089 c-0.193,0.458-0.29,1.09-0.29,1.897v5.625H297.121z"/><path d="M315.185,48.244l1.801,0.223c-0.284,1.052-0.811,1.868-1.578,2.449c-0.769,0.581-1.749,0.871-2.943,0.871 c-1.504,0-2.695-0.463-3.576-1.389c-0.882-0.926-1.322-2.225-1.322-3.896c0-1.729,0.445-3.072,1.336-4.027s2.046-1.433,3.466-1.433 c1.375,0,2.498,0.468,3.369,1.403c0.871,0.936,1.307,2.252,1.307,3.95c0,0.104-0.003,0.258-0.01,0.465h-7.667 c0.064,1.129,0.384,1.994,0.959,2.594c0.574,0.6,1.29,0.9,2.148,0.9c0.639,0,1.185-0.168,1.636-0.503 C314.562,49.515,314.92,48.979,315.185,48.244z M309.463,45.427h5.741c-0.078-0.865-0.297-1.514-0.658-1.946 c-0.556-0.671-1.275-1.007-2.159-1.007c-0.801,0-1.473,0.268-2.019,0.803C309.824,43.813,309.522,44.53,309.463,45.427z"/></g><g><path d="M167.356,77.805V63.614h1.878v5.828h7.376v-5.828h1.878v14.191h-1.878v-6.689h-7.376v6.689H167.356z"/><path d="M188.43,74.495l1.801,0.223c-0.284,1.052-0.811,1.868-1.578,2.449c-0.769,0.581-1.749,0.871-2.943,0.871 c-1.504,0-2.695-0.463-3.576-1.389c-0.882-0.926-1.322-2.225-1.322-3.896c0-1.729,0.445-3.072,1.336-4.027s2.046-1.433,3.466-1.433 c1.375,0,2.498,0.468,3.369,1.403c0.871,0.936,1.307,2.252,1.307,3.95c0,0.104-0.003,0.258-0.01,0.465h-7.667 c0.064,1.129,0.384,1.994,0.959,2.594c0.574,0.6,1.29,0.9,2.148,0.9c0.639,0,1.185-0.168,1.636-0.503 C187.807,75.766,188.166,75.23,188.43,74.495z M182.708,71.678h5.741c-0.078-0.865-0.297-1.514-0.658-1.946 c-0.556-0.671-1.275-1.007-2.159-1.007c-0.801,0-1.473,0.268-2.019,0.803C183.069,70.064,182.767,70.781,182.708,71.678z"/><path d="M199.126,76.537c-0.646,0.548-1.267,0.936-1.863,1.162c-0.598,0.226-1.238,0.339-1.922,0.339 c-1.13,0-1.998-0.276-2.604-0.828s-0.909-1.257-0.909-2.115c0-0.503,0.114-0.963,0.343-1.379c0.229-0.417,0.529-0.75,0.9-1.002 c0.371-0.252,0.789-0.442,1.254-0.571c0.342-0.09,0.858-0.177,1.549-0.261c1.407-0.168,2.442-0.368,3.107-0.6 c0.007-0.239,0.01-0.391,0.01-0.455c0-0.71-0.165-1.21-0.494-1.5c-0.445-0.394-1.106-0.59-1.984-0.59 c-0.819,0-1.425,0.144-1.814,0.431c-0.391,0.287-0.68,0.795-0.867,1.524l-1.703-0.232c0.154-0.729,0.409-1.318,0.765-1.767 c0.354-0.448,0.868-0.793,1.539-1.036s1.449-0.363,2.333-0.363c0.878,0,1.591,0.103,2.14,0.31c0.548,0.207,0.951,0.466,1.21,0.779 c0.258,0.313,0.438,0.708,0.542,1.186c0.058,0.297,0.087,0.833,0.087,1.607v2.323c0,1.62,0.037,2.644,0.111,3.073 s0.221,0.841,0.44,1.234h-1.819C199.293,77.444,199.178,77.021,199.126,76.537z M198.981,72.646 c-0.633,0.258-1.581,0.478-2.846,0.658c-0.717,0.104-1.224,0.22-1.521,0.349s-0.525,0.318-0.687,0.566 c-0.162,0.249-0.242,0.524-0.242,0.828c0,0.464,0.176,0.852,0.527,1.162c0.352,0.31,0.866,0.464,1.544,0.464 c0.671,0,1.269-0.146,1.791-0.44c0.522-0.293,0.906-0.695,1.152-1.205c0.187-0.394,0.28-0.974,0.28-1.742V72.646z"/><path d="M203.406,77.805V63.614h1.742v14.191H203.406z"/><path d="M211.653,76.247l0.252,1.539c-0.491,0.104-0.93,0.155-1.316,0.155c-0.633,0-1.123-0.101-1.472-0.3 c-0.349-0.2-0.594-0.463-0.736-0.789c-0.142-0.326-0.213-1.012-0.213-2.057V68.88h-1.277v-1.355h1.277v-2.546l1.733-1.045v3.591 h1.752v1.355h-1.752v6.012c0,0.497,0.03,0.816,0.092,0.958c0.062,0.142,0.161,0.255,0.3,0.339c0.139,0.084,0.337,0.126,0.596,0.126 C211.082,76.314,211.336,76.292,211.653,76.247z"/><path d="M213.357,77.805V63.614h1.743v5.092c0.813-0.942,1.839-1.413,3.078-1.413c0.761,0,1.423,0.15,1.984,0.45 c0.562,0.3,0.963,0.715,1.205,1.244s0.363,1.297,0.363,2.304v6.515h-1.743V71.29c0-0.871-0.188-1.505-0.565-1.902 c-0.378-0.397-0.912-0.595-1.603-0.595c-0.517,0-1.002,0.134-1.457,0.401c-0.455,0.268-0.779,0.631-0.973,1.089 c-0.193,0.458-0.29,1.09-0.29,1.897v5.625H213.357z"/><path d="M230.113,77.805V63.614h5.354c0.942,0,1.662,0.045,2.158,0.135c0.697,0.116,1.281,0.337,1.753,0.664 c0.471,0.326,0.85,0.782,1.137,1.37s0.432,1.232,0.432,1.936c0,1.207-0.385,2.228-1.152,3.064 c-0.769,0.835-2.155,1.253-4.163,1.253h-3.64v5.77H230.113z M231.991,70.361h3.669c1.214,0,2.075-0.226,2.585-0.678 c0.51-0.452,0.765-1.087,0.765-1.907c0-0.594-0.15-1.102-0.45-1.525c-0.3-0.422-0.695-0.702-1.186-0.837 c-0.316-0.083-0.9-0.125-1.752-0.125h-3.631V70.361z"/><path d="M243.094,77.805V67.524h1.568v1.559c0.4-0.729,0.77-1.21,1.108-1.442c0.339-0.232,0.712-0.348,1.118-0.348 c0.587,0,1.185,0.187,1.791,0.561l-0.601,1.617c-0.426-0.251-0.852-0.377-1.277-0.377c-0.381,0-0.723,0.115-1.026,0.344 c-0.303,0.229-0.52,0.547-0.648,0.954c-0.193,0.62-0.29,1.297-0.29,2.033v5.382H243.094z"/><path d="M249.068,72.665c0-1.904,0.529-3.314,1.588-4.23c0.884-0.761,1.962-1.142,3.233-1.142c1.413,0,2.568,0.463,3.465,1.389 c0.897,0.926,1.346,2.206,1.346,3.838c0,1.323-0.198,2.364-0.595,3.122c-0.397,0.758-0.975,1.347-1.733,1.767 c-0.758,0.419-1.586,0.629-2.482,0.629c-1.439,0-2.603-0.461-3.49-1.384S249.068,74.401,249.068,72.665z M250.859,72.665 c0,1.316,0.287,2.302,0.861,2.957c0.574,0.655,1.297,0.983,2.169,0.983c0.864,0,1.584-0.329,2.158-0.988 c0.574-0.658,0.861-1.662,0.861-3.01c0-1.271-0.288-2.235-0.866-2.89c-0.577-0.655-1.296-0.982-2.153-0.982 c-0.872,0-1.595,0.326-2.169,0.978S250.859,71.348,250.859,72.665z"/><path d="M260.422,78.657l1.694,0.251c0.07,0.523,0.268,0.903,0.59,1.142c0.433,0.323,1.023,0.484,1.772,0.484 c0.807,0,1.429-0.162,1.868-0.484c0.438-0.323,0.735-0.774,0.891-1.355c0.09-0.355,0.132-1.1,0.126-2.236 c-0.762,0.897-1.711,1.346-2.847,1.346c-1.413,0-2.507-0.51-3.281-1.529c-0.774-1.02-1.162-2.243-1.162-3.669 c0-0.981,0.178-1.886,0.532-2.715c0.355-0.829,0.87-1.47,1.545-1.922c0.674-0.452,1.466-0.677,2.376-0.677 c1.213,0,2.214,0.49,3.001,1.471v-1.239h1.607v8.887c0,1.601-0.163,2.735-0.489,3.403s-0.842,1.195-1.549,1.583 s-1.576,0.581-2.609,0.581c-1.226,0-2.217-0.276-2.972-0.828S260.397,79.767,260.422,78.657z M261.865,72.481 c0,1.349,0.268,2.333,0.804,2.953c0.535,0.62,1.207,0.929,2.014,0.929c0.8,0,1.471-0.308,2.014-0.924 c0.542-0.616,0.813-1.583,0.813-2.899c0-1.258-0.279-2.207-0.837-2.846c-0.559-0.639-1.231-0.958-2.019-0.958 c-0.774,0-1.433,0.314-1.975,0.944C262.136,70.308,261.865,71.242,261.865,72.481z"/><path d="M271.749,77.805V67.524h1.568v1.559c0.4-0.729,0.77-1.21,1.108-1.442c0.339-0.232,0.712-0.348,1.118-0.348 c0.587,0,1.185,0.187,1.791,0.561l-0.601,1.617c-0.426-0.251-0.852-0.377-1.277-0.377c-0.381,0-0.723,0.115-1.026,0.344 c-0.303,0.229-0.52,0.547-0.648,0.954c-0.193,0.62-0.29,1.297-0.29,2.033v5.382H271.749z"/><path d="M285.079,76.537c-0.646,0.548-1.267,0.936-1.863,1.162c-0.598,0.226-1.238,0.339-1.922,0.339 c-1.13,0-1.998-0.276-2.604-0.828s-0.909-1.257-0.909-2.115c0-0.503,0.114-0.963,0.343-1.379c0.229-0.417,0.529-0.75,0.9-1.002 c0.371-0.252,0.789-0.442,1.254-0.571c0.342-0.09,0.858-0.177,1.549-0.261c1.407-0.168,2.442-0.368,3.107-0.6 c0.007-0.239,0.01-0.391,0.01-0.455c0-0.71-0.165-1.21-0.494-1.5c-0.445-0.394-1.106-0.59-1.984-0.59 c-0.819,0-1.425,0.144-1.814,0.431c-0.391,0.287-0.68,0.795-0.867,1.524l-1.703-0.232c0.154-0.729,0.409-1.318,0.765-1.767 c0.354-0.448,0.868-0.793,1.539-1.036s1.449-0.363,2.333-0.363c0.878,0,1.591,0.103,2.14,0.31c0.548,0.207,0.951,0.466,1.21,0.779 c0.258,0.313,0.438,0.708,0.542,1.186c0.058,0.297,0.087,0.833,0.087,1.607v2.323c0,1.62,0.037,2.644,0.111,3.073 s0.221,0.841,0.44,1.234h-1.819C285.246,77.444,285.13,77.021,285.079,76.537z M284.933,72.646 c-0.633,0.258-1.581,0.478-2.846,0.658c-0.717,0.104-1.224,0.22-1.521,0.349s-0.525,0.318-0.687,0.566 c-0.162,0.249-0.242,0.524-0.242,0.828c0,0.464,0.176,0.852,0.527,1.162c0.352,0.31,0.866,0.464,1.544,0.464 c0.671,0,1.269-0.146,1.791-0.44c0.522-0.293,0.906-0.695,1.152-1.205c0.187-0.394,0.28-0.974,0.28-1.742V72.646z"/><path d="M289.396,77.805V67.524h1.559v1.442c0.323-0.503,0.752-0.908,1.288-1.215c0.535-0.306,1.146-0.459,1.829-0.459 c0.762,0,1.386,0.158,1.873,0.474c0.487,0.316,0.831,0.758,1.031,1.326c0.813-1.2,1.871-1.8,3.175-1.8 c1.02,0,1.804,0.282,2.353,0.847c0.549,0.565,0.823,1.435,0.823,2.609v7.057h-1.733v-6.476c0-0.697-0.057-1.199-0.169-1.505 c-0.113-0.307-0.318-0.553-0.615-0.741c-0.297-0.187-0.646-0.281-1.045-0.281c-0.723,0-1.323,0.241-1.801,0.721 c-0.478,0.481-0.717,1.25-0.717,2.309v5.973h-1.742v-6.68c0-0.774-0.142-1.355-0.426-1.742s-0.749-0.581-1.394-0.581 c-0.491,0-0.944,0.129-1.36,0.387c-0.416,0.258-0.718,0.636-0.905,1.133s-0.28,1.213-0.28,2.149v5.334H289.396z"/><path d="M305.911,77.805V67.524h1.559v1.442c0.323-0.503,0.752-0.908,1.288-1.215c0.535-0.306,1.146-0.459,1.829-0.459 c0.762,0,1.386,0.158,1.873,0.474c0.487,0.316,0.831,0.758,1.031,1.326c0.813-1.2,1.871-1.8,3.175-1.8 c1.02,0,1.804,0.282,2.353,0.847c0.549,0.565,0.823,1.435,0.823,2.609v7.057h-1.733v-6.476c0-0.697-0.057-1.199-0.169-1.505 c-0.113-0.307-0.318-0.553-0.615-0.741c-0.297-0.187-0.646-0.281-1.045-0.281c-0.723,0-1.323,0.241-1.801,0.721 c-0.478,0.481-0.717,1.25-0.717,2.309v5.973h-1.742v-6.68c0-0.774-0.142-1.355-0.426-1.742s-0.749-0.581-1.394-0.581 c-0.491,0-0.944,0.129-1.36,0.387c-0.416,0.258-0.718,0.636-0.905,1.133s-0.28,1.213-0.28,2.149v5.334H305.911z"/><path d="M329.463,74.495l1.801,0.223c-0.284,1.052-0.811,1.868-1.578,2.449c-0.769,0.581-1.749,0.871-2.943,0.871 c-1.504,0-2.695-0.463-3.576-1.389c-0.882-0.926-1.322-2.225-1.322-3.896c0-1.729,0.445-3.072,1.336-4.027s2.046-1.433,3.466-1.433 c1.375,0,2.498,0.468,3.369,1.403c0.871,0.936,1.307,2.252,1.307,3.95c0,0.104-0.003,0.258-0.01,0.465h-7.667 c0.064,1.129,0.384,1.994,0.959,2.594c0.574,0.6,1.29,0.9,2.148,0.9c0.639,0,1.185-0.168,1.636-0.503 C328.84,75.766,329.199,75.23,329.463,74.495z M323.742,71.678h5.741c-0.078-0.865-0.297-1.514-0.658-1.946 c-0.556-0.671-1.275-1.007-2.159-1.007c-0.801,0-1.473,0.268-2.019,0.803C324.102,70.064,323.8,70.781,323.742,71.678z"/><path d="M338.311,72.665c0-1.904,0.529-3.314,1.588-4.23c0.884-0.761,1.962-1.142,3.233-1.142c1.413,0,2.568,0.463,3.465,1.389 c0.897,0.926,1.346,2.206,1.346,3.838c0,1.323-0.198,2.364-0.595,3.122c-0.397,0.758-0.975,1.347-1.733,1.767 c-0.758,0.419-1.586,0.629-2.482,0.629c-1.439,0-2.603-0.461-3.49-1.384S338.311,74.401,338.311,72.665z M340.102,72.665 c0,1.316,0.287,2.302,0.861,2.957c0.574,0.655,1.297,0.983,2.169,0.983c0.864,0,1.584-0.329,2.158-0.988 c0.574-0.658,0.861-1.662,0.861-3.01c0-1.271-0.288-2.235-0.866-2.89c-0.577-0.655-1.296-0.982-2.153-0.982 c-0.872,0-1.595,0.326-2.169,0.978S340.102,71.348,340.102,72.665z"/><path d="M350.401,77.805V68.88h-1.539v-1.355h1.539v-1.094c0-0.69,0.062-1.204,0.185-1.539c0.168-0.452,0.463-0.818,0.886-1.099 s1.015-0.421,1.776-0.421c0.49,0,1.032,0.058,1.626,0.174l-0.262,1.52c-0.361-0.064-0.703-0.097-1.025-0.097 c-0.529,0-0.904,0.113-1.123,0.338c-0.22,0.226-0.329,0.649-0.329,1.269v0.948h2.004v1.355h-2.004v8.925H350.401z"/></g><g><path d="M170.879,101.028l0.252,1.539c-0.491,0.104-0.93,0.155-1.316,0.155c-0.633,0-1.123-0.101-1.472-0.301 c-0.349-0.199-0.594-0.463-0.736-0.788c-0.142-0.326-0.213-1.012-0.213-2.058v-5.915h-1.277v-1.354h1.277v-2.546l1.733-1.046v3.592 h1.752v1.354h-1.752v6.012c0,0.497,0.03,0.816,0.092,0.959c0.062,0.142,0.161,0.255,0.3,0.339s0.337,0.125,0.596,0.125 C170.308,101.096,170.563,101.073,170.879,101.028z"/><path d="M172.583,102.587V88.396h1.743v5.092c0.813-0.942,1.839-1.413,3.078-1.413c0.761,0,1.423,0.149,1.984,0.45 c0.562,0.3,0.963,0.715,1.205,1.244c0.242,0.528,0.363,1.297,0.363,2.304v6.515h-1.743v-6.515c0-0.871-0.188-1.506-0.565-1.902 c-0.378-0.397-0.912-0.596-1.603-0.596c-0.517,0-1.002,0.134-1.457,0.402c-0.455,0.268-0.779,0.631-0.973,1.089 s-0.29,1.091-0.29,1.897v5.624H172.583z"/><path d="M190.647,99.276l1.801,0.223c-0.284,1.052-0.811,1.868-1.578,2.449c-0.769,0.581-1.749,0.871-2.943,0.871 c-1.504,0-2.695-0.463-3.576-1.39c-0.882-0.926-1.322-2.225-1.322-3.896c0-1.729,0.445-3.072,1.336-4.027s2.046-1.433,3.466-1.433 c1.375,0,2.498,0.468,3.369,1.403s1.307,2.253,1.307,3.95c0,0.103-0.003,0.258-0.01,0.464h-7.667 c0.064,1.13,0.384,1.994,0.959,2.595c0.574,0.601,1.29,0.9,2.148,0.9c0.639,0,1.185-0.168,1.636-0.504 C190.024,100.548,190.382,100.012,190.647,99.276z M184.925,96.459h5.741c-0.078-0.864-0.297-1.513-0.658-1.945 c-0.556-0.671-1.275-1.007-2.159-1.007c-0.801,0-1.473,0.268-2.019,0.804C185.286,94.846,184.984,95.563,184.925,96.459z"/><path d="M200.405,102.587V88.396h10.261v1.675h-8.383v4.347h7.851v1.665h-7.851v4.83h8.712v1.675H200.405z"/><path d="M220.104,102.587v-1.51c-0.8,1.161-1.888,1.742-3.262,1.742c-0.606,0-1.173-0.116-1.699-0.349 c-0.525-0.232-0.916-0.524-1.171-0.876s-0.435-0.782-0.537-1.292c-0.071-0.343-0.106-0.885-0.106-1.627v-6.369h1.742v5.701 c0,0.91,0.035,1.523,0.106,1.84c0.109,0.458,0.342,0.817,0.697,1.079c0.354,0.262,0.793,0.392,1.316,0.392 c0.522,0,1.013-0.134,1.471-0.401c0.459-0.268,0.783-0.633,0.974-1.094s0.285-1.131,0.285-2.009v-5.508h1.742v10.28H220.104z"/><path d="M224.373,102.587v-10.28h1.568v1.559c0.4-0.729,0.77-1.21,1.108-1.442s0.712-0.349,1.118-0.349 c0.587,0,1.185,0.188,1.791,0.562l-0.601,1.616c-0.426-0.252-0.852-0.377-1.277-0.377c-0.381,0-0.723,0.114-1.026,0.343 c-0.303,0.229-0.52,0.548-0.648,0.954c-0.193,0.619-0.29,1.297-0.29,2.033v5.382H224.373z"/><path d="M230.346,97.446c0-1.903,0.529-3.313,1.588-4.23c0.884-0.761,1.962-1.142,3.233-1.142c1.413,0,2.568,0.463,3.465,1.389 c0.897,0.927,1.346,2.206,1.346,3.839c0,1.322-0.198,2.363-0.595,3.122c-0.397,0.758-0.975,1.347-1.733,1.767 c-0.758,0.419-1.586,0.629-2.482,0.629c-1.439,0-2.603-0.461-3.49-1.385C230.79,100.512,230.346,99.183,230.346,97.446z M232.137,97.446c0,1.316,0.287,2.303,0.861,2.958c0.574,0.654,1.297,0.982,2.169,0.982c0.864,0,1.584-0.329,2.158-0.987 s0.861-1.662,0.861-3.011c0-1.271-0.288-2.234-0.866-2.89c-0.577-0.655-1.296-0.982-2.153-0.982c-0.872,0-1.595,0.326-2.169,0.978 C232.424,95.146,232.137,96.13,232.137,97.446z"/><path d="M242.02,106.526v-14.22h1.588v1.336c0.374-0.523,0.797-0.915,1.268-1.177c0.472-0.261,1.043-0.392,1.714-0.392 c0.878,0,1.652,0.226,2.323,0.678c0.671,0.451,1.178,1.089,1.52,1.911c0.343,0.823,0.514,1.726,0.514,2.706 c0,1.052-0.189,1.999-0.566,2.841c-0.378,0.843-0.927,1.488-1.646,1.937c-0.72,0.448-1.477,0.673-2.271,0.673 c-0.581,0-1.102-0.123-1.563-0.368c-0.461-0.245-0.841-0.555-1.137-0.929v5.004H242.02z M243.598,97.505 c0,1.323,0.268,2.301,0.804,2.933c0.535,0.633,1.184,0.949,1.945,0.949c0.774,0,1.438-0.328,1.989-0.982 c0.552-0.655,0.828-1.67,0.828-3.045c0-1.31-0.27-2.291-0.809-2.942c-0.539-0.652-1.183-0.979-1.932-0.979 c-0.742,0-1.398,0.348-1.97,1.041C243.883,95.174,243.598,96.182,243.598,97.505z"/><path d="M260.084,99.276l1.801,0.223c-0.284,1.052-0.811,1.868-1.578,2.449c-0.769,0.581-1.749,0.871-2.943,0.871 c-1.504,0-2.695-0.463-3.576-1.39c-0.882-0.926-1.322-2.225-1.322-3.896c0-1.729,0.445-3.072,1.336-4.027s2.046-1.433,3.466-1.433 c1.375,0,2.498,0.468,3.369,1.403s1.307,2.253,1.307,3.95c0,0.103-0.003,0.258-0.01,0.464h-7.667 c0.064,1.13,0.384,1.994,0.959,2.595c0.574,0.601,1.29,0.9,2.148,0.9c0.639,0,1.185-0.168,1.636-0.504 C259.461,100.548,259.82,100.012,260.084,99.276z M254.363,96.459h5.741c-0.078-0.864-0.297-1.513-0.658-1.945 c-0.556-0.671-1.275-1.007-2.159-1.007c-0.801,0-1.473,0.268-2.019,0.804C254.723,94.846,254.421,95.563,254.363,96.459z"/><path d="M270.781,101.318c-0.646,0.549-1.267,0.937-1.863,1.162c-0.598,0.226-1.238,0.339-1.922,0.339 c-1.13,0-1.998-0.276-2.604-0.828s-0.909-1.257-0.909-2.115c0-0.503,0.114-0.963,0.343-1.379c0.229-0.416,0.529-0.75,0.9-1.002 s0.789-0.442,1.254-0.571c0.342-0.09,0.858-0.178,1.549-0.262c1.407-0.167,2.442-0.367,3.107-0.6 c0.007-0.239,0.01-0.391,0.01-0.455c0-0.71-0.165-1.21-0.494-1.501c-0.445-0.394-1.106-0.59-1.984-0.59 c-0.819,0-1.425,0.144-1.814,0.431c-0.391,0.287-0.68,0.795-0.867,1.524l-1.703-0.232c0.154-0.729,0.409-1.317,0.765-1.767 c0.354-0.448,0.868-0.794,1.539-1.035c0.671-0.242,1.449-0.363,2.333-0.363c0.878,0,1.591,0.104,2.14,0.31 c0.548,0.207,0.951,0.467,1.21,0.779c0.258,0.313,0.438,0.708,0.542,1.186c0.058,0.297,0.087,0.833,0.087,1.607v2.323 c0,1.62,0.037,2.645,0.111,3.073c0.074,0.43,0.221,0.841,0.44,1.234h-1.819C270.948,102.226,270.833,101.803,270.781,101.318z M270.635,97.428c-0.633,0.258-1.581,0.478-2.846,0.658c-0.717,0.103-1.224,0.219-1.521,0.348c-0.297,0.13-0.525,0.318-0.687,0.566 c-0.162,0.249-0.242,0.524-0.242,0.828c0,0.465,0.176,0.852,0.527,1.161c0.352,0.311,0.866,0.465,1.544,0.465 c0.671,0,1.269-0.146,1.791-0.44c0.522-0.293,0.906-0.695,1.152-1.205c0.187-0.394,0.28-0.975,0.28-1.742V97.428z"/><path d="M275.098,102.587v-10.28h1.568v1.462c0.755-1.13,1.846-1.694,3.272-1.694c0.619,0,1.188,0.111,1.708,0.334 s0.908,0.515,1.167,0.876c0.258,0.361,0.438,0.79,0.542,1.287c0.064,0.323,0.097,0.888,0.097,1.694v6.321h-1.742v-6.254 c0-0.709-0.068-1.24-0.204-1.592c-0.135-0.352-0.376-0.633-0.721-0.843c-0.346-0.209-0.75-0.314-1.215-0.314 c-0.742,0-1.383,0.235-1.922,0.707c-0.539,0.471-0.808,1.365-0.808,2.682v5.614H275.098z"/><path d="M301.167,88.396h1.878v8.199c0,1.427-0.161,2.559-0.483,3.397c-0.323,0.84-0.905,1.521-1.748,2.048 c-0.842,0.526-1.947,0.789-3.315,0.789c-1.329,0-2.417-0.229-3.262-0.688c-0.846-0.458-1.449-1.121-1.811-1.989 s-0.542-2.054-0.542-3.558v-8.199h1.878v8.189c0,1.232,0.114,2.142,0.344,2.726c0.229,0.584,0.623,1.034,1.181,1.35 c0.559,0.316,1.241,0.475,2.048,0.475c1.381,0,2.365-0.313,2.952-0.938s0.881-1.83,0.881-3.611V88.396z"/><path d="M305.95,102.587v-10.28h1.568v1.462c0.755-1.13,1.846-1.694,3.272-1.694c0.619,0,1.188,0.111,1.708,0.334 s0.908,0.515,1.167,0.876c0.258,0.361,0.438,0.79,0.542,1.287c0.064,0.323,0.097,0.888,0.097,1.694v6.321h-1.742v-6.254 c0-0.709-0.068-1.24-0.204-1.592c-0.135-0.352-0.376-0.633-0.721-0.843c-0.346-0.209-0.75-0.314-1.215-0.314 c-0.742,0-1.383,0.235-1.922,0.707c-0.539,0.471-0.808,1.365-0.808,2.682v5.614H305.95z"/><path d="M316.985,90.399v-2.004h1.742v2.004H316.985z M316.985,102.587v-10.28h1.742v10.28H316.985z"/><path d="M320.731,97.446c0-1.903,0.529-3.313,1.588-4.23c0.884-0.761,1.962-1.142,3.233-1.142c1.413,0,2.568,0.463,3.465,1.389 c0.897,0.927,1.346,2.206,1.346,3.839c0,1.322-0.198,2.363-0.595,3.122c-0.397,0.758-0.975,1.347-1.733,1.767 c-0.758,0.419-1.586,0.629-2.482,0.629c-1.439,0-2.603-0.461-3.49-1.385C321.174,100.512,320.731,99.183,320.731,97.446z M322.522,97.446c0,1.316,0.287,2.303,0.861,2.958c0.574,0.654,1.297,0.982,2.169,0.982c0.864,0,1.584-0.329,2.158-0.987 s0.861-1.662,0.861-3.011c0-1.271-0.288-2.234-0.866-2.89c-0.577-0.655-1.296-0.982-2.153-0.982c-0.872,0-1.595,0.326-2.169,0.978 C322.809,95.146,322.522,96.13,322.522,97.446z"/><path d="M332.406,102.587v-10.28h1.568v1.462c0.755-1.13,1.846-1.694,3.272-1.694c0.619,0,1.188,0.111,1.708,0.334 s0.908,0.515,1.167,0.876c0.258,0.361,0.438,0.79,0.542,1.287c0.064,0.323,0.097,0.888,0.097,1.694v6.321h-1.742v-6.254 c0-0.709-0.068-1.24-0.204-1.592c-0.135-0.352-0.376-0.633-0.721-0.843c-0.346-0.209-0.75-0.314-1.215-0.314 c-0.742,0-1.383,0.235-1.922,0.707c-0.539,0.471-0.808,1.365-0.808,2.682v5.614H332.406z"/></g></svg>