<svg xmlns="http://www.w3.org/2000/svg" viewBox="0 0 1054.34 838.56"><defs><style>.c{fill:#fff;}.d{fill:#f60;}.e,.f{fill:#064d8f;}.g{fill:#dfdfe7;}.g,.f,.h,.i{stroke-linecap:round;stroke-linejoin:round;stroke-width:4px;}.g,.f,.i{stroke:#333;}.h{stroke:#fff;}.h,.i{fill:none;}</style></defs><g id="a"/><g id="b"><polygon class="g" points="120.19 123.33 120.19 648.69 323.68 715.24 323.68 189.88 120.19 123.33"/><polygon class="g" points="527.17 123.33 527.17 648.69 730.66 715.24 730.66 189.88 527.17 123.33"/><polygon class="f" points="527.17 123.33 527.17 648.69 323.68 715.24 323.68 189.88 527.17 123.33"/><polygon class="f" points="934.14 123.33 934.14 648.69 730.66 715.24 730.66 189.88 934.14 123.33"/><line class="i" x1="166.76" y1="411.85" x2="269.71" y2="444.56"/><line class="i" x1="166.76" y1="446.83" x2="269.71" y2="479.54"/><line class="i" x1="166.76" y1="481.81" x2="269.71" y2="514.52"/><line class="i" x1="166.76" y1="519.62" x2="269.71" y2="552.32"/><line class="i" x1="166.76" y1="554.6" x2="269.71" y2="587.3"/><line class="i" x1="166.76" y1="589.58" x2="237.05" y2="611.91"/><line class="i" x1="249.66" y1="227.1" x2="277.96" y2="234.62"/><line class="i" x1="249.66" y1="244.54" x2="277.96" y2="252.06"/><line class="i" x1="214.9" y1="262.83" x2="234.52" y2="234.62"/><ellipse class="h" cx="201.6" cy="315.42" rx="32.91" ry="36.71"/><ellipse class="c" cx="634.22" cy="493.54" rx="32.91" ry="36.71"/><ellipse class="d" cx="640.29" cy="277.47" rx="22.8" ry="25.81"/><ellipse class="h" cx="831.64" cy="409.11" rx="92.2" ry="26.68" transform="translate(-90.4 315.05) rotate(-20.37)"/><ellipse class="e" cx="584.54" cy="256.85" rx="22.8" ry="25.81"/><line class="i" x1="379.49" y1="554.6" x2="482.73" y2="521.63"/><line class="i" x1="379.49" y1="589.58" x2="482.73" y2="556.61"/><line class="i" x1="379.49" y1="624.56" x2="482.73" y2="591.59"/><line class="i" x1="423.57" y1="493.54" x2="423.57" y2="294.96"/><polygon class="c" points="392.15 340.68 462.54 323.62 425.42 259.41 392.15 340.68"/><polygon class="d" points="390.58 446.83 460.97 429.77 423.86 365.57 390.58 446.83"/><line class="h" x1="564.35" y1="312.88" x2="668.73" y2="345.59"/><line class="h" x1="564.35" y1="349.21" x2="668.73" y2="381.92"/><line class="h" x1="564.35" y1="384.86" x2="668.73" y2="417.56"/><line class="h" x1="577.1" y1="579.24" x2="644.55" y2="598.7"/><line class="h" x1="577.1" y1="608.08" x2="603.87" y2="615.8"/><line class="h" x1="584.26" y1="566.85" x2="603.87" y2="538.11"/><ellipse class="c" cx="639.14" cy="277.81" rx="10.23" ry="11.58"/><circle class="c" cx="850.6" cy="429.65" r="12.09"/></g></svg>