<?xml version="1.0" encoding="utf-8"?>
<!-- Generator: Adobe Illustrator 26.2.1, SVG Export Plug-In . SVG Version: 6.00 Build 0)  -->
<svg version="1.1" id="Calque_1" xmlns="http://www.w3.org/2000/svg" xmlns:xlink="http://www.w3.org/1999/xlink" x="0px" y="0px"
	 viewBox="0 0 1054.3 838.6" style="enable-background:new 0 0 1054.3 838.6;" xml:space="preserve">
<style type="text/css">
	.st0{fill:#FF6600;}
	.st1{fill:#DFDFE7;}
	.st2{fill:none;stroke:#333333;stroke-width:4;stroke-linecap:round;stroke-linejoin:round;}
	.st3{fill:#064D8F;}
	.st4{fill:#333333;}
	.st5{fill:none;stroke:#333333;stroke-width:3.91;stroke-linecap:round;stroke-linejoin:round;}
	.st6{fill:none;stroke:#DFDFE7;stroke-width:2.03;stroke-miterlimit:10;}
</style>
<g id="b">
	<path class="st0" d="M399.1,375.6L352,582H274l-9-15.7L239.2,549l-22-5.3l-7.7,16.3l2.4,22h-90l5.3-105.6
		c12-15.3,14.6-78.3,29.1-96.3c15.8-19.6,26.6-15.8,46.2-22.8c17.4-6.2,34-7.7,39.8-8.3c2.9-0.3,4.5-0.4,4.5-0.4s0.7,51.2,16.3,102
		l18.1-102L399.1,375.6L399.1,375.6z"/>
	<rect x="306.2" y="418" class="st1" width="71.2" height="163.9"/>
	<path class="st2" d="M171.4,543.2c0,0,41.9-3.6,58.7,2s41.7,20.8,44,36.7"/>
	<path class="st2" d="M108.6,550.7c0,0-8.3-14.9-12.3-37.8c-4.2-24.4-3.5-57.9,17.2-92.2c2.6-4.2,5.4-8.2,8.3-12
		c37.3-47.5,102.7-57.7,120.4-59.6c2.9-0.3,4.5-0.4,4.5-0.4s0.7,51.2,16.3,102l0.1,2.9l4,115.3"/>
	<path class="st2" d="M125.4,517.6h35.3l-4.4-137.5C156.3,380.1,124.3,449.2,125.4,517.6z"/>
	<polyline class="st2" points="828.7,458.2 828.7,543.4 748,567.5 	"/>
	<path class="st2" d="M826,383.3c0,0,59.8,6.3,61.6,89.7c0.3,14.4,1.8,48.6,1.8,48.6"/>
	<path class="st2" d="M855.9,367.6c0,0,72.2,26,74.9,147.1"/>
	<polygon class="st3" points="1040.5,581.9 970.7,581.9 1015.4,512.9 	"/>
	<polygon class="st1" points="988.9,579.6 865.2,579 891.8,512.9 1015.4,512.9 	"/>
	<polygon class="st3" points="21.8,581.9 91.5,581.9 46.8,512.9 	"/>
	<polygon class="st1" points="73.4,579.6 197,579 170.4,512.9 46.8,512.9 	"/>
	<path class="st3" d="M746.7,327.1c0,0-27,10.3-45.8,0s-48.9-41.7-35.3-97.6c13.6-55.9,67.7-25.1,67.7-25.1s30.3-58.5,75.8-65
		c46.8-6.7,94.6,24.5,62.8,84c0,0,37.2,19.8,21.5,57.7c-6.9,16.5-29.3,22.9-52.3,24.8l8.9-44.2l-14-46.4l-53.6,16.9l-53.4-2.1
		l-11.6,40l-15.6,14.6l0.6,10.1l16.9,3.6L746.7,327.1L746.7,327.1z"/>
	<polygon class="st3" points="413.7,581.9 341.2,360.8 621.2,360.8 695.1,562.9 806.6,562.9 806.6,581.9 	"/>
	<circle class="st3" cx="595.7" cy="698.9" r="50.4"/>
	<circle class="st4" cx="354.3" cy="113" r="23.8"/>
	<circle class="st0" cx="595.7" cy="698.9" r="23.8"/>
	
		<ellipse transform="matrix(0.1602 -0.9871 0.9871 0.1602 -41.4424 953.6226)" class="st1" cx="539.7" cy="501.2" rx="11.9" ry="11.9"/>
	<circle class="st4" cx="762.2" cy="277.4" r="3.7"/>
	<line class="st5" x1="364.3" y1="134.5" x2="422.7" y2="268.5"/>
	
		<ellipse transform="matrix(0.9359 -0.3523 0.3523 0.9359 -133.9547 213.5696)" class="st6" cx="519.7" cy="474.8" rx="99.3" ry="30.2"/>
	<line class="st2" x1="0" y1="581.9" x2="1054.3" y2="581.9"/>
	<polyline class="st2" points="676,498.8 709,381.9 746.7,369.7 746.7,327.1 	"/>
	<path class="st2" d="M727.2,376l41.1,76.1l57.7-68.9l-19.4-44.1c0,0,73.2-39.3,29.4-123.9"/>
	<path class="st2" d="M774.6,337.3c0,0-30.2-0.6-55.3-39c0,0-18.4,3-18.4-8.5c0-6.3,3.2-9.2,6-10.6c5.1-2.4,9.4-6.3,11.7-11.4
		c6.6-14.5,10.4-37.8,10.4-37.8c79.8,12.7,122.7-25.7,122.7-25.7"/>
	<path class="st2" d="M790.3,259.7c0,0-2.1,22.7,18.7,28.1"/>
	<path class="st2" d="M756.2,303.5c0,0,8.5,17.2,25.7,11.8"/>
	<path class="st2" d="M719,425c0,0-38.1,84-7.7,89.7"/>
	<path class="st2" d="M217.2,543.7c0,0-13.4,8.8-5.3,38.3"/>
	<path class="st2" d="M242.3,498.8c0,0,5.3,46.9,12.6,59.1"/>
	<polyline class="st2" points="242.3,349 204.2,388.7 232.1,389.8 219.6,415 263.2,453.5 	"/>
	<path class="st2" d="M249.3,324.6c-48.5-9.5-57.1-39-57.1-39s-16.3,3.4-20.6-8.8c-4.3-12.2,11.3-13.1,11.3-13.1
		c-31.7-37.2,6.6-56.4,6.6-56.4s8.6-47.8,66.4-42.1c45.4,4.4,66.3,39.5,71.2,74.4"/>
	<path class="st2" d="M316.6,357.3l-35.4-8.7l-18.1,102l22.3-18.3l20.5-16.8l-9.7-18.2l-4.1-7.6l7.5-0.5l21.1-1.3l-13.8-13.7
		l-25.6-25.5l1.1-19.9c0,0,39-19.1,44.9-58"/>
	<path class="st2" d="M244.6,311c0,0,21.5,3.2,30.1-3.4"/>
	<path class="st2" d="M326.3,194.1c-43.3,43.7-122.1,20.8-122.1,20.8c-3.9,35.6-21.3,48.7-21.3,48.7l34,9.1"/>
	<path class="st2" d="M213.7,201.5c0,0,65.3,9.1,99-17"/>
	<path class="st2" d="M227.8,190.2c0,0,42.5,4.4,63.9-12.9"/>
	<circle class="st2" cx="244.7" cy="267.8" r="26.2"/>
	<circle class="st2" cx="306.2" cy="255.2" r="26.2"/>
	<circle class="st5" cx="510.2" cy="481.9" r="230.1"/>
	<line class="st2" x1="321.1" y1="474.8" x2="360.7" y2="474.8"/>
	<line class="st2" x1="341.2" y1="454.9" x2="360.7" y2="454.9"/>
	<line class="st2" x1="321.1" y1="493.2" x2="360.7" y2="493.2"/>
	<line class="st2" x1="321.1" y1="511.7" x2="360.7" y2="511.7"/>
	<line class="st2" x1="321.1" y1="530.2" x2="360.7" y2="530.2"/>
	<circle class="st0" cx="325.2" cy="453.8" r="8.3"/>
</g>
</svg>
