<svg xmlns="http://www.w3.org/2000/svg" xmlns:xlink="http://www.w3.org/1999/xlink" width="538" height="944" viewBox="0 0 538 944">
  <defs>
    <clipPath id="clip-path">
      <rect id="Rectangle_40" data-name="Rectangle 40" width="538" height="944" transform="translate(-148 3477)" fill="#fff"/>
    </clipPath>
  </defs>
  <g id="Groupe_de_masques_2" data-name="Groupe de masques 2" transform="translate(148 -3477)" clip-path="url(#clip-path)">
    <path id="Plan_de_travail_1" data-name="Plan de travail 1" d="M834.894,440.506a33.04,33.04,0,0,0-14.124,3.156l-42.32-65.239a57.507,57.507,0,1,0-61.979-94.573L704.83,272.261a12.863,12.863,0,0,0,2.483-7.605,12.986,12.986,0,0,0-20.694-10.5L664.114,231.8a33.5,33.5,0,1,0-1.914,1.759l22.505,22.35a13,13,0,0,0,18.418,18.314l11.537,11.485a57.149,57.149,0,0,0-3.777,75.069l-128.1,88.986a64.317,64.317,0,0,0-45.114-26.23V343.242a38.543,38.543,0,1,0-2.587,0v80.139c-1.449-.1-2.9-.207-4.346-.207a64.153,64.153,0,0,0-47.442,21L361.046,325.135a57.49,57.49,0,0,0-35.956-90.124V204.332c1.19.1,2.328.155,3.57.155a46.845,46.845,0,1,0-8.743-.828v30.576a51.726,51.726,0,0,0-5.691-.31A57.613,57.613,0,0,0,265.7,322.7L159.38,380.026a73.958,73.958,0,1,0,1.345,2.173l106.421-57.375a57.5,57.5,0,0,0,90.641,4.4l122.1,118.889a63.584,63.584,0,0,0-13.244,33.473L402.59,476.2c0-.621.1-1.19.1-1.811a38.608,38.608,0,1,0-.259,4.4l64.049,5.432c-.052,1.086-.155,2.225-.155,3.311a63.734,63.734,0,0,0,5.691,26.282L147.532,631.255a50.2,50.2,0,1,0,1.345,2.276L473.157,516.2a64.085,64.085,0,0,0,11.33,16.09L322.5,659.038a51.275,51.275,0,1,0-4.242,79.208l17.8,14.072a26.76,26.76,0,1,0,41.8,33.007l12.572,9.933a48.865,48.865,0,1,0,1.811-1.914L379.1,783a26.19,26.19,0,0,0,3.052-12.21,26.657,26.657,0,0,0-44.182-20.229l-17.59-13.917a51.17,51.17,0,0,0,3.984-75.793l161.881-126.7a64,64,0,0,0,84.122,3.984L686.516,638.447A54.6,54.6,0,1,0,736.8,618.735l8.174-63.687a27.206,27.206,0,0,0,4.6.414,28.132,28.132,0,1,0-7.139-.931l-8.174,63.842c-1.707-.155-3.466-.259-5.277-.259A54.408,54.408,0,0,0,689.1,635.55L573.37,535.6a64.121,64.121,0,0,0,10.761-83.605l128.2-89.037A57.462,57.462,0,0,0,756,383.131a55.9,55.9,0,0,0,19.815-3.621l42.475,65.446a33.8,33.8,0,1,0,16.452-4.294ZM607.308,206.349a32.542,32.542,0,1,1,32.542,32.542,32.567,32.567,0,0,1-32.542-32.542ZM500.37,304.7a35.956,35.956,0,1,1,35.956,35.956A36.012,36.012,0,0,1,500.37,304.7ZM286.96,157.563a41.647,41.647,0,1,1,41.647,41.647,41.686,41.686,0,0,1-41.647-41.647ZM101.073,486.188a67.463,67.463,0,1,1,67.463-67.463A67.542,67.542,0,0,1,101.073,486.188Zm213.1-142.118a52.512,52.512,0,1,1,52.512-52.512A52.583,52.583,0,0,1,314.173,344.07ZM364.15,510.349a35.956,35.956,0,1,1,35.956-35.956A36.012,36.012,0,0,1,364.15,510.349ZM108.523,700.788a44.027,44.027,0,1,1,44.027-44.027,44.093,44.093,0,0,1-44.027,44.027ZM427.785,781.5A48.683,48.683,0,1,1,379.1,830.18,48.73,48.73,0,0,1,427.785,781.5ZM724.179,527.215a25.506,25.506,0,1,1,25.506,25.506A25.524,25.524,0,0,1,724.179,527.215Zm4.915,94.625a50.7,50.7,0,1,1-50.7,50.7A50.783,50.783,0,0,1,729.094,621.84ZM580.612,451.215l-7.553,5.277a52.4,52.4,0,0,0-35.387-21v-9.312a61.787,61.787,0,0,1,42.992,25.092Zm-49.873,83.657a47.39,47.39,0,1,1,47.39-47.39A47.449,47.449,0,0,1,530.739,534.872Zm0-109.163c1.449,0,2.9.1,4.346.207v9.209c-1.449-.1-2.9-.207-4.346-.207a52.487,52.487,0,0,0-39.009,17.435l-6.622-6.415a61.506,61.506,0,0,1,45.579-20.229ZM481.8,449.922l6.674,6.467a52,52,0,0,0-10.037,26.178l-9.157-.776a61.213,61.213,0,0,1,12.572-31.869Zm-12.83,37.56c0-1.035.1-2.069.155-3.1l9.157.776c0,.776-.1,1.552-.1,2.328a51.752,51.752,0,0,0,5.018,22.246l-8.692,3.156A61.367,61.367,0,0,1,468.967,487.482Zm6.674,27.73,8.692-3.156a54.049,54.049,0,0,0,9.519,12.831l-7.295,5.691a62.48,62.48,0,0,1-10.968-15.366ZM288.15,745.436a48.683,48.683,0,1,1,48.683-48.683A48.73,48.73,0,0,1,288.15,745.436ZM530.739,549.254a61.367,61.367,0,0,1-42.268-16.866l7.346-5.743a52.168,52.168,0,0,0,65.6,3.414l7.14,6.157A61.409,61.409,0,0,1,530.739,549.254Zm61.773-61.773a61.541,61.541,0,0,1-20.953,46.252l-7.036-6.053a52.488,52.488,0,0,0,10.037-69.119l7.553-5.277A61.378,61.378,0,0,1,592.46,487.43Zm108.7-162.088a54.943,54.943,0,1,1,54.943,54.943A55.012,55.012,0,0,1,701.209,325.393Zm133.737,180.2a31.248,31.248,0,1,1,31.248-31.248A31.287,31.287,0,0,1,834.946,505.589Z" transform="translate(-41.023 3430.801)" fill="#fff"/>
  </g>
</svg>
