<?xml version="1.0" encoding="utf-8"?>
<!-- Generator: Adobe Illustrator 26.2.1, SVG Export Plug-In . SVG Version: 6.00 Build 0)  -->
<svg version="1.1" id="Calque_1" xmlns="http://www.w3.org/2000/svg" xmlns:xlink="http://www.w3.org/1999/xlink" x="0px" y="0px"
	 viewBox="0 0 408.7 692.6" style="enable-background:new 0 0 408.7 692.6;" xml:space="preserve">
<style type="text/css">
	.st0{fill:#FFFFFF;}
</style>
<g>
	<g id="Groupe_de_masques_1" transform="translate(0 -3477)">
		<path id="Plan_de_travail_1" class="st0" d="M13.7,4116.5c4.9,15.9,1.7,33.9-10.3,47.2c-0.9,1-1.9,2-2.9,3v3
			c9.9-8.9,16.1-21.8,16.2-36.2C16.7,4127.5,15.6,4121.8,13.7,4116.5z M180,3477c-16.2,0-29.7,11.9-32.2,27.5
			c1.3-6.2,4.3-12.2,9.2-17c11.8-11.7,30-12.8,43-3.5C194.6,3479.6,187.6,3477,180,3477z M404.5,3761.2c-6-10.7-17.3-17.3-29.5-17.3
			l0.1-0.2c-4.9,0-9.7,1.1-14.1,3.2l-42.3-65.2c29.3-12.2,43.1-45.9,30.9-75.2c-12.2-29.3-45.9-43.1-75.2-30.9
			c-6.5,2.7-12.5,6.6-17.6,11.5l-11.6-11.6c1.6-2.2,2.5-4.9,2.5-7.6c0-7.2-5.8-13-12.9-13c-2.8,0-5.5,0.9-7.8,2.5l-22.5-22.4
			c13.1-13,13.2-34.2,0.2-47.4c-1.4-1.4-2.8-2.6-4.3-3.7c7.6,6,12.4,15.2,12.4,25.6c0,18-14.6,32.5-32.5,32.5c-9,0-17.1-3.7-23-9.5
			c-5.9-5.9-9.5-14-9.5-23c0-1.7,0.1-3.3,0.4-5c-2.1,10.6,0.9,22,9.1,30.2c12.3,12.4,32.1,13.2,45.5,1.9l22.5,22.4
			c-4.8,5.3-4.4,13.5,0.9,18.4c5,4.5,12.6,4.5,17.5-0.1l11.5,11.5c-19.8,20.6-21.5,52.6-3.8,75.1l-128.1,89
			c-10.6-14.7-27-24.2-45.1-26.2v-80.3c21.3-0.7,37.9-18.5,37.2-39.8c-0.7-21.3-18.5-37.9-39.8-37.2c-21.3,0.7-37.9,18.5-37.2,39.8
			c0.7,20.3,17,36.6,37.2,37.2v80.1c-1.4-0.1-2.9-0.2-4.3-0.2c-18.1,0-35.3,7.6-47.5,21l-23-22.4v7.2l19.6,19.1
			c-7.5,9.6-12.1,21.3-13.2,33.5l-6.3-0.5v2.6l6.2,0.5c0,1.1-0.2,2.2-0.2,3.3c0,9.1,2,18,5.7,26.3l-11.7,4.2v2.8l12.8-4.6
			c2.9,5.9,6.7,11.3,11.3,16.1l-24.2,18.9v3.2l25.9-20.3c23.1,22.2,59,23.9,84.1,4l116.1,100.3c-19,23.4-15.3,57.8,8.1,76.8
			c23.5,19,57.8,15.3,76.8-8.1c19-23.5,15.3-57.8-8.1-76.8c-7.6-6.2-16.8-10.2-26.5-11.6l8.2-63.7c1.5,0.3,3.1,0.4,4.6,0.4
			c15.5,0,28.2-12.5,28.2-28.1c0-15.5-12.5-28.2-28.1-28.2c-15.5,0-28.1,12.5-28.2,28.1c0,12.8,8.6,24,21,27.2l-8.2,63.8
			c-1.7-0.2-3.5-0.3-5.3-0.3c-15.1,0-29.6,6.3-39.9,17.4l-115.7-99.9c24-21.3,28.6-57,10.8-83.6l128.2-89
			c10.9,12.8,26.9,20.2,43.7,20.2c6.8,0,13.5-1.2,19.8-3.6l42.5,65.4c-16.3,9.1-22.1,29.7-13,46c9.1,16.3,29.7,22.1,46,13
			C407.7,3798.1,413.6,3777.5,404.5,3761.2z M271.8,3848.4c-4.6-4.6-7.5-11-7.5-18c0-14.1,11.4-25.5,25.5-25.5
			c14.1,0,25.5,11.4,25.5,25.5c0,14.1-11.4,25.5-25.5,25.5C282.8,3855.9,276.5,3853.1,271.8,3848.4z M269.3,3925
			c28,0,50.7,22.7,50.7,50.7s-22.7,50.7-50.7,50.7s-50.7-22.7-50.7-50.7C218.6,3947.8,241.3,3925.1,269.3,3925z M120.8,3754.5
			L120.8,3754.5l-7.6,5.2c-8.4-11.5-21.2-19.1-35.4-21v-9.3C95.1,3731.3,110.7,3740.4,120.8,3754.5z M51.1,3633.3
			c-6.5-6.5-10.5-15.5-10.5-25.4c0-19.9,16.1-36,36-36c19.9,0,36,16.1,36,36c0,19.9-16.1,36-36,36
			C66.6,3643.8,57.6,3639.8,51.1,3633.3z M118.3,3790.7c0,26.2-21.2,47.4-47.4,47.4c-26.2,0-47.4-21.2-47.4-47.4
			c0-26.2,21.2-47.4,47.4-47.4C97.1,3743.3,118.3,3764.5,118.3,3790.7z M70.9,3728.9L70.9,3728.9c1.5,0,2.9,0.1,4.4,0.2v9.2
			c-1.4-0.1-2.9-0.2-4.3-0.2c-14.9,0-29.1,6.4-39,17.4l-6.6-6.4C36.9,3736.2,53.5,3728.9,70.9,3728.9z M22,3753.1L22,3753.1
			L22,3753.1C22,3753.1,22,3753.1,22,3753.1l6.6,6.4c-5.7,7.6-9.2,16.7-10,26.2l-9.2-0.8C10.5,3773.4,14.9,3762.3,22,3753.1z
			 M9.2,3790.7c0-1,0.1-2.1,0.2-3.1l9.2,0.8c0,0.8-0.1,1.5-0.1,2.3c0,7.7,1.7,15.3,5,22.2l-8.7,3.2
			C11.1,3808.1,9.2,3799.4,9.2,3790.7z M15.8,3818.4L15.8,3818.4l8.8-3.1c2.5,4.7,5.7,9.1,9.5,12.8l-7.3,5.7
			C22.3,3829.2,18.6,3824.1,15.8,3818.4z M70.9,3852.4c-15.7,0-30.9-6-42.3-16.9l7.3-5.7c18.3,16.5,45.7,17.9,65.6,3.4l7.1,6.2
			C97.9,3847.9,84.6,3852.4,70.9,3852.4z M132.6,3790.6L132.6,3790.6c0,17.8-7.6,34.6-20.9,46.3l-7-6c20.4-17.2,24.7-46.9,10-69.1
			l7.5-5.3C129.1,3766.6,132.7,3778.5,132.6,3790.6z M296.3,3683.5c-15.2,0-28.9-6.2-38.8-16.1c-9.9-9.9-16.1-23.7-16.1-38.8
			c0-30.3,24.6-54.9,54.9-54.9c30.4,0,55,24.6,55,54.9C351.3,3658.9,326.7,3683.5,296.3,3683.5z M397.2,3799.6
			c-5.7,5.6-13.5,9.1-22.1,9.2c-17.3,0-31.2-14-31.2-31.2c0-17.3,14-31.2,31.2-31.2c17.3,0,31.2,14,31.2,31.2
			C406.4,3786.2,402.9,3794,397.2,3799.6z M0.5,4097.1c5.8,5.2,10.4,11.9,13.2,19.4c-2.4-7.8-6.8-15.1-13.2-21V4097.1z"/>
	</g>
</g>
</svg>
