<svg xmlns="http://www.w3.org/2000/svg" xmlns:xlink="http://www.w3.org/1999/xlink" width="552" height="535" viewBox="0 0 552 535">
  <defs>
    <clipPath id="clip-path">
      <rect id="Rectangle_57" data-name="Rectangle 57" width="552" height="535" transform="translate(34 3542)" fill="#fff"/>
    </clipPath>
  </defs>
  <g id="Groupe_de_masques_15" data-name="Groupe de masques 15" transform="translate(-34 -3542)" clip-path="url(#clip-path)">
    <path id="Plan_de_travail_1" data-name="Plan de travail 1" d="M741.458,402.188a29.2,29.2,0,0,0-12.482,2.789l-37.4-57.656A50.823,50.823,0,1,0,636.8,263.741L626.512,253.5a11.368,11.368,0,0,0,2.195-6.721,11.477,11.477,0,0,0-18.289-9.282l-19.889-19.752a29.607,29.607,0,1,0-1.692,1.555l19.889,19.752A11.487,11.487,0,0,0,625,255.237l10.2,10.15a50.507,50.507,0,0,0-3.338,66.343L518.653,410.373a56.841,56.841,0,0,0-39.87-23.181V316.23a34.063,34.063,0,1,0-2.286,0v70.824c-1.28-.091-2.56-.183-3.841-.183a56.7,56.7,0,0,0-41.927,18.563L322.686,300.227a50.807,50.807,0,0,0-31.777-79.648V193.465c1.052.091,2.057.137,3.155.137a41.4,41.4,0,1,0-7.727-.732v27.022a45.715,45.715,0,0,0-5.029-.274,50.917,50.917,0,0,0-42.888,78.46l-93.96,50.66a65.363,65.363,0,1,0,1.189,1.92L239.7,299.953a50.819,50.819,0,0,0,80.106,3.886l107.9,105.07a56.193,56.193,0,0,0-11.7,29.582l-56.6-4.755c0-.549.091-1.052.091-1.6a34.12,34.12,0,1,0-.229,3.886l56.6,4.8c-.046.96-.137,1.966-.137,2.926a56.326,56.326,0,0,0,5.029,23.227L133.99,570.767a44.367,44.367,0,1,0,1.189,2.012l286.588-103.7A56.636,56.636,0,0,0,431.78,483.3L288.623,595.32a45.316,45.316,0,1,0-3.749,70L300.6,677.758a23.65,23.65,0,1,0,36.944,29.171l11.111,8.779a43.185,43.185,0,1,0,1.6-1.692l-11.614-9.144a23.146,23.146,0,0,0,2.7-10.79A23.559,23.559,0,0,0,302.294,676.2l-15.546-12.3a45.222,45.222,0,0,0,3.521-66.983L433.335,484.946a56.563,56.563,0,0,0,74.345,3.521l102.647,88.656a48.251,48.251,0,1,0,44.442-17.42l7.224-56.284a24.042,24.042,0,0,0,4.069.366,24.862,24.862,0,1,0-6.31-.823l-7.224,56.421c-1.509-.137-3.063-.229-4.664-.229a48.084,48.084,0,0,0-35.252,15.408L510.331,486.226a56.668,56.668,0,0,0,9.51-73.887l113.3-78.688a50.783,50.783,0,0,0,38.59,17.832,49.4,49.4,0,0,0,17.512-3.2l37.538,57.839a29.871,29.871,0,1,0,14.54-3.8ZM540.325,195.249a28.759,28.759,0,1,1,28.759,28.759,28.782,28.782,0,0,1-28.759-28.759Zm-94.508,86.918a31.777,31.777,0,1,1,31.777,31.777A31.826,31.826,0,0,1,445.817,282.167ZM257.212,152.133a36.807,36.807,0,1,1,36.807,36.807,36.841,36.841,0,0,1-36.807-36.807ZM92.931,442.561a59.622,59.622,0,1,1,59.622-59.622A59.691,59.691,0,0,1,92.931,442.561Zm188.331-125.6a46.408,46.408,0,1,1,46.408-46.408A46.471,46.471,0,0,1,281.262,316.962ZM325.43,463.914a31.777,31.777,0,1,1,31.777-31.777A31.826,31.826,0,0,1,325.43,463.914ZM99.515,632.218a38.91,38.91,0,1,1,38.91-38.91,38.968,38.968,0,0,1-38.91,38.91Zm282.153,71.327a43.025,43.025,0,1,1-43.025,43.025A43.066,43.066,0,0,1,381.668,703.545ZM643.612,478.819a22.541,22.541,0,1,1,22.541,22.541A22.557,22.557,0,0,1,643.612,478.819Zm4.344,83.626a44.808,44.808,0,1,1-44.808,44.808A44.881,44.881,0,0,1,647.956,562.446ZM516.732,411.653l-6.675,4.664a46.313,46.313,0,0,0-31.274-18.563v-8.23a54.606,54.606,0,0,1,38,22.175Zm-44.076,73.933A41.882,41.882,0,1,1,514.538,443.7,41.934,41.934,0,0,1,472.656,485.586Zm0-96.474c1.28,0,2.56.091,3.841.183v8.139c-1.28-.091-2.56-.183-3.841-.183a46.386,46.386,0,0,0-34.475,15.409l-5.852-5.67a54.357,54.357,0,0,1,40.281-17.877ZM429.4,410.51l5.9,5.715a45.956,45.956,0,0,0-8.87,23.136l-8.093-.686a54.1,54.1,0,0,1,11.111-28.165ZM418.063,443.7c0-.914.091-1.829.137-2.743l8.093.686c0,.686-.091,1.372-.091,2.057a45.737,45.737,0,0,0,4.435,19.661l-7.681,2.789A54.235,54.235,0,0,1,418.063,443.7Zm5.9,24.507,7.681-2.789a47.766,47.766,0,0,0,8.413,11.339l-6.447,5.029a55.218,55.218,0,0,1-9.693-13.58Zm-165.7,203.465a43.025,43.025,0,1,1,43.025-43.025A43.066,43.066,0,0,1,258.264,671.676ZM472.656,498.3A54.234,54.234,0,0,1,435.3,483.391l6.493-5.075a46.1,46.1,0,0,0,57.976,3.018l6.31,5.441A54.272,54.272,0,0,1,472.656,498.3ZM527.249,443.7a54.387,54.387,0,0,1-18.518,40.876l-6.218-5.35a46.387,46.387,0,0,0,8.87-61.085l6.676-4.664a54.244,54.244,0,0,1,9.144,30.177Zm96.063-143.248a48.557,48.557,0,1,1,48.557,48.557A48.617,48.617,0,0,1,623.311,300.456ZM741.5,459.707a27.616,27.616,0,1,1,27.616-27.616A27.65,27.65,0,0,1,741.5,459.707Z" transform="translate(189.652 3597.592)" fill="#064d8f"/>
  </g>
</svg>
