<svg xmlns="http://www.w3.org/2000/svg" viewBox="0 0 1054.3 838.56"><defs><style>.c{stroke-width:3.31px;}.c,.d,.e,.f{stroke-linecap:round;stroke-linejoin:round;}.c,.g,.f,.h{stroke:#333;}.c,.f{fill:#333;}.i{fill:#f60;}.j{fill:#dfdfe7;}.k{fill:#064d8f;}.d{fill:#f05;}.d,.e{stroke:#000;}.d,.e,.g{stroke-width:4px;}.e,.g,.h{fill:none;}.g,.h{stroke-miterlimit:10;}.f{stroke-width:3px;}.h{stroke-width:4.71px;}</style></defs><circle class="k" cx="282.2" cy="167.83" r="77.54"/><circle class="j" cx="282.2" cy="586.99" r="77.54"/><circle class="j" cx="570.18" cy="586.99" r="77.54"/><circle class="k" cx="888.41" cy="586.99" r="77.54"/><circle class="i" cx="432.48" cy="377.41" r="77.54"/><circle class="j" cx="735.3" cy="377.41" r="77.54"/><line class="g" x1="282.2" x2="282.2" y1="245.37" y2="509.44"/><line class="g" x1="388.24" x2="328.07" y1="441.09" y2="524.46"/><line class="g" x1="474.38" x2="528.17" y1="442.67" y2="521.8"/><line class="g" x1="684.45" x2="617.08" y1="435.95" y2="524.46"/><line class="g" x1="780.12" x2="842.07" y1="440.69" y2="524.81"/><path class="k" d="m773.82 368.54-77.89 5.32c1.79-20.17 18.74-35.97 39.37-35.97 18.77 0 34.5 13.09 38.52 30.65z"/><path class="k" d="M774.82,377.41c0,21.83-17.7,39.52-39.52,39.52s-38.73-16.9-39.5-38.05l78.83-5.38c.13,1.28,.19,2.59,.19,3.91Z"/><line class="d" x1="430.29" x2="429.75" y1="419.13" y2="448.01"/><line class="d" x1="477.56" x2="449.5" y1="431.94" y2="403.74"/><circle class="e" cx="432.48" cy="378.1" r="29.74"/><line class="e" x1="396.78" x2="408.09" y1="389.43" y2="386.03"/><path class="e" d="M411.1,357.44s2.97,11.41,13.83,15.91c4.03,1.67,8.53,1.71,12.72,.5,3.55-1.02,10.07-3.2,13.48,3.56,4.62,9.19-6.27,14.21-6.27,14.21"/><circle class="i" cx="570.18" cy="586.99" r="49.37"/><line class="d" x1="571.8" x2="572.35" y1="625.81" y2="654.69"/><line class="d" x1="524.53" x2="552.6" y1="638.62" y2="610.42"/><circle class="e" cx="569.61" cy="584.78" r="29.74"/><line class="e" x1="605.31" x2="594.01" y1="596.12" y2="592.71"/><path class="e" d="M590.99,564.12s-2.97,11.41-13.83,15.91c-4.03,1.67-8.53,1.71-12.72,.5-3.55-1.02-10.07-3.2-13.48,3.56-4.62,9.19,6.27,14.21,6.27,14.21"/><path class="j" d="M971.4,174.8c0,.94-.04,1.88-.1,2.8v53.26h-82.41v-54.95h.03c-.01-.37-.03-.74-.03-1.11,0-22.79,18.47-41.26,41.26-41.26s41.25,18.47,41.25,41.26Z"/><path class="i" d="M971.3,284.07c.06,.94,.1,1.88,.1,2.84,0,22.79-18.47,41.26-41.25,41.26s-41.26-18.47-41.26-41.26c0-.96,.04-1.9,.11-2.84h-.11v-53.21h82.41v53.21Z"/><path class="h" d="M888.89,230.86v53.21h.11c-.07,.94-.11,1.88-.11,2.84,0,22.79,18.47,41.26,41.26,41.26s41.25-18.47,41.25-41.26c0-.96-.04-1.9-.1-2.84v-106.47c.06-.92,.1-1.86,.1-2.8,0-22.79-18.47-41.26-41.25-41.26s-41.26,18.47-41.26,41.26c0,.37,.02,.74,.03,1.11h-.03v54.95Z"/><polyline class="h" points="887.44 230.86 888.89 230.86 971.3 230.86 971.4 230.86"/><line class="f" x1="82.93" x2="199.54" y1="323.07" y2="323.07"/><line class="f" x1="82.93" x2="199.54" y1="359.75" y2="359.75"/><line class="f" x1="82.93" x2="199.54" y1="396.44" y2="396.44"/><line class="f" x1="82.93" x2="199.54" y1="433.13" y2="433.13"/><line class="c" x1="819.61" x2="961.27" y1="711.59" y2="711.59"/><line class="c" x1="819.61" x2="961.27" y1="748.28" y2="748.28"/></svg>