<?xml version="1.0" encoding="utf-8"?>
<!-- Generator: Adobe Illustrator 26.2.1, SVG Export Plug-In . SVG Version: 6.00 Build 0)  -->
<svg version="1.1" id="Calque_1" xmlns="http://www.w3.org/2000/svg" xmlns:xlink="http://www.w3.org/1999/xlink" x="0px" y="0px"
	 viewBox="0 0 1054.3 838.6" style="enable-background:new 0 0 1054.3 838.6;" xml:space="preserve">
<style type="text/css">
	.st0{fill:#064D8F;}
	.st1{fill:#DFDFE7;}
	.st2{fill:#FF6600;}
	.st3{fill:none;stroke:#333333;stroke-width:4;stroke-linecap:round;stroke-linejoin:round;}
	.st4{fill:#333333;}
	.st5{fill:none;stroke:#333333;stroke-width:3.91;stroke-linecap:round;stroke-linejoin:round;}
	.st6{fill:none;stroke:#DFDFE7;stroke-width:2.03;stroke-miterlimit:10;}
</style>
<g id="b">
	<g>
		<polygon class="st0" points="182.6,458.5 129.4,296 335.1,296 389.4,444.5 471.2,444.5 471.2,458.5 		"/>
		<path class="st0" d="M695.3,134.9c0,0.5,0,1,0,1.5c-0.1,3.1-0.5,6.2-1.2,9.2c-54.1,5.3-71.3-34.8-71.3-34.8
			c-1.7,6.8-7.3,22.3-16,32.6c-4.3,5.2-9.8,6-14.2,5.6c-3.8-0.4-7.1-2.4-9.6-5.2c-1.8-2-5-4.6-10.6-4.1c-3.8,0.3-5.2,3.3-5.6,6.2
			c-0.7,4,0.5,8.2,3.2,11.4c7.7,9.3,21.5,5.1,21.5,5.1c2.1,14.4,7.2,24.7,12.5,31.9c-5.8,1.5-12,2.3-18.4,2.3
			c-34.1,0-61.7-23-61.7-51.3S551.2,94,585.3,94c5.3,0,10.5,0.6,15.4,1.6c0.1,0,0.3,0,0.4,0.1c7.5-5.7,16.7-9.6,26.7-11.3
			c0.8-0.1,1.6-0.2,2.4-0.3c0,0,0,0,0.1,0c2.6-0.3,5.1-0.5,7.8-0.5C669.6,83.6,695.3,106.6,695.3,134.9L695.3,134.9z"/>
		<polygon class="st1" points="714.3,458.5 516.7,458.5 516.5,437.6 518.4,266.7 518.9,235.2 531.9,205.7 550.6,191.2 573.3,183.4 
			596.8,182.2 633.6,279.2 709.6,185.5 		"/>
		<polygon class="st1" points="719.3,755 518.7,755 516.9,488.7 714.8,488.7 		"/>
		<rect x="530.7" y="422.5" class="st2" width="42.4" height="35.9"/>
		<polygon class="st2" points="713.8,458.5 622.6,458.5 638.6,429.2 697.3,430.3 		"/>
		<circle class="st0" cx="135.6" cy="544.4" r="37"/>
		<polyline class="st3" points="70.5,488.7 516.9,488.7 714.8,488.7 987.9,488.7 987.9,458.5 714.3,458.5 516.7,458.5 66.5,458.5 		
			"/>
		<line class="st3" x1="638.3" y1="342.7" x2="745.5" y2="342.7"/>
		<line class="st3" x1="745.5" y1="318" x2="745.5" y2="458.5"/>
		<polyline class="st3" points="655.7,322 653.7,405.2 620,458.5 		"/>
		<polyline class="st3" points="676,322 681,404.6 715.2,458.5 		"/>
		<line class="st3" x1="529.8" y1="405.6" x2="532.5" y2="458.5"/>
		<line class="st3" x1="573.1" y1="405.6" x2="573.1" y2="458.5"/>
		<path class="st3" d="M529.8,358.2c0,0,13.1,13.8,23.3-1.6l5.1,31.6c0,0,12-7,12.4-24.7l8.2,22.2c0,0,10.2-14.4,10.7-23.1
			l13.1,23.7c0,0,20.4-26-5.5-50.8c-20.4-19.5-49.9-2-49.9-2"/>
		<path class="st3" d="M516.5,447.4l1.9-175.6c0-3.9,0-7.7-0.2-11.6c-0.9-16.5,0.6-82.1,78.8-77.1"/>
		<path class="st3" d="M636.8,272.7c1-20.5,28.3-41.6,28.3-41.6c22.1-10.5,25.5-18.1,25.5-18.1c18.8-27.6,5.5-67.6,5.5-67.6
			c-0.7,0.1-1.4,0.2-2.1,0.2c-54.1,5.3-71.3-34.8-71.3-34.8c-1.7,6.8-7.3,22.3-16,32.6c-4.3,5.2-9.8,6-14.2,5.6
			c-3.8-0.4-7.1-2.4-9.6-5.2c-1.8-2-5-4.6-10.6-4.1c-3.8,0.3-5.2,3.3-5.6,6.2c-0.7,4,0.5,8.2,3.2,11.4c7.7,9.3,21.5,5.1,21.5,5.1
			c2.1,14.4,7.2,24.7,12.5,31.9c7.6,10.3,15.5,14,15.5,14"/>
		<path class="st3" d="M671.1,175.7c0,0,3,17.5,4.8,21.3c1.8,3.8-4.8,9.7-4.8,9.7"/>
		<path class="st3" d="M696.1,145.4c0,0,0.3-49.1-45.9-59.7c-46.3-10.7-74.9,28.2-67.3,58.2"/>
		<line class="st3" x1="627.8" y1="84.3" x2="622.7" y2="110.8"/>
		<path class="st3" d="M624.7,100.5c0,0,20-2.7,32.1,4.3s25.4,27.4,38.2,30.1"/>
		<circle class="st4" cx="649" cy="179.5" r="2"/>
		<circle class="st4" cx="452.9" cy="206.7" r="17.5"/>
		<circle class="st2" cx="135.6" cy="544.4" r="17.5"/>
		<circle class="st1" cx="275.2" cy="399.2" r="8.7"/>
		<circle class="st5" cx="252.7" cy="422.5" r="169.1"/>
		<line class="st5" x1="441.6" y1="220" x2="369.6" y2="300.5"/>
		
			<ellipse transform="matrix(0.9359 -0.3523 0.3523 0.9359 -117.0998 116.1535)" class="st6" cx="260.6" cy="379.8" rx="72.9" ry="22.2"/>
	</g>
</g>
</svg>
