<?xml version="1.0" encoding="utf-8"?>
<!-- Generator: Adobe Illustrator 26.2.1, SVG Export Plug-In . SVG Version: 6.00 Build 0)  -->
<svg version="1.1" id="Calque_1" xmlns="http://www.w3.org/2000/svg" xmlns:xlink="http://www.w3.org/1999/xlink" x="0px" y="0px"
	 viewBox="0 0 1054.3 838.6" style="enable-background:new 0 0 1054.3 838.6;" xml:space="preserve">
<style type="text/css">
	.st0{fill:#064D8F;}
	.st1{fill:#FF6600;}
	.st2{fill:#DFDFE7;}
	.st3{fill:none;stroke:#333333;stroke-width:4;stroke-linecap:round;stroke-linejoin:round;}
	.st4{fill:#333333;}
	.st5{fill:none;stroke:#333333;stroke-width:3.17;stroke-linecap:round;stroke-linejoin:round;}
</style>
<g id="a">
</g>
<g id="b">
	<g>
		<path class="st0" d="M648.4,400.9c4.7,11.4,20.2,3.8,20.2,3.8l52.5-18.5v209.5L595.2,708.5l3.8-543.8L721.1,52v300.8l-64.7,30.7
			C656.4,383.4,643.7,389.4,648.4,400.9L648.4,400.9z"/>
		<polygon class="st1" points="182.5,535 195.6,566 210.9,558.2 212.1,619.5 261.7,627 281.8,559.6 271.3,537.3 282.6,527.5 
			281.2,500.8 		"/>
		<circle class="st1" cx="298.1" cy="281.9" r="24"/>
		<path class="st0" d="M371.9,398c0,0-5,24.9,20.5,80.1l-5-2.9l-20.4,90.6l9.2,14.8c0,0-14.3,37.8-11.6,65.6L258.5,635l21.4-68.3
			l22.2-72.7l13.6-43.9l1.4-4.5l-17,1.8c0,0,30.7-61.9,40.2-69.5c0,0,9.8,18.5,17.1,25.8L371.9,398L371.9,398z"/>
		<polygon class="st2" points="488.6,374.8 484.6,629 458.4,623.3 463,530.5 436.6,627 402.9,627 405,520 414,399.9 462.8,357.9 
			471.8,394.9 		"/>
		<path class="st1" d="M826.9,308.4c0,0,18.3,31.4,54.5,24.7s44.1-36.3,37-75.2c-7.1-38.9-32-35.6-41.8-35.5s-37,9.7-73.6-9.9
			c-33.7-18.1-46.9-8.7-58.1,6.9s2.7,27.1,2.7,27.1l9,1l4-13l3-2.9l39.2,23.6l8.3-1l3.8,8.1l-3.8,15.1L826.9,308.4L826.9,308.4z"/>
		<polyline class="st3" points="721.1,340.2 721.1,52 599,164.8 595.2,708.5 721.1,595.8 721.1,399.6 		"/>
		<polyline class="st3" points="513.5,274.3 513.5,115.7 721.1,52 		"/>
		<polyline class="st3" points="706.9,65 572.8,148.9 569.6,692.7 595.4,674.2 		"/>
		<polyline class="st3" points="569.7,676.9 551.2,689.3 555.6,142.2 706.9,56.3 		"/>
		<path class="st3" d="M551.2,666l-13.4,5.8v-46.5c0,0-58.9,5.8-79.4-2.1"/>
		<polyline class="st3" points="690.4,61.4 539.2,130.6 535.6,383.4 		"/>
		<path class="st3" d="M502,528.2c0,0,18,11.4,30.5,12.8"/>
		<polyline class="st3" points="512.9,627 512.9,657 537.8,642 		"/>
		<path class="st3" d="M506.4,627v73.3l-43.6,13.9c0,0,9-16.1,21.8-19.9c0,0-14.5-59.5-13.7-68.3"/>
		<path class="st3" d="M421.4,627c0.3,6.5,21,60.8,21,60.8l-14.4,24.2l32.7-17.7c0,0-0.3-21.8-2.2-53.9s7.1-114.2,7.1-114.2
			l8.2-125.6c0,0-11.2-33.2-10.9-42.8l-48.8,42l-5,36"/>
		<polyline class="st3" points="465.9,520 436.6,627 406.1,627 		"/>
		<line class="st3" x1="500.7" y1="360.4" x2="535.6" y2="395.5"/>
		<line class="st3" x1="498.1" y1="321.3" x2="504.7" y2="335.7"/>
		<path class="st3" d="M493.9,346.6c0,0-27.1,8.7-40.8-13.9c0,0-12.4,4.5-12.4-7s11.3-5.9,11.3-5.9s10,14,17.2-1.4
			c3-6.4-6-19.6,12.7-28.5c0,0,15.4-8.6,26.8,4.5c0,0-13-23.5-42.6-10.1c0,0-19.4,8-17.6,34.2"/>
		<circle class="st4" cx="487.2" cy="325" r="1.8"/>
		<circle class="st4" cx="371.2" cy="311.7" r="1.8"/>
		<circle class="st4" cx="258.5" cy="354.6" r="1.8"/>
		<circle class="st4" cx="282.1" cy="443.6" r="1.8"/>
		<line class="st3" x1="468.1" y1="345.7" x2="462.8" y2="357.9"/>
		<path class="st3" d="M453.9,365.6c0,0-12.7,13.6-13.1,43.1"/>
		<circle class="st3" cx="441.5" cy="415.8" r="7.1"/>
		<path class="st3" d="M508.1,367.8c0,0,21.8,18,1.5,48"/>
		<path class="st3" d="M497.2,440.3l-6.5-3.7l1-11.5c0.3-3.8,2.3-7.4,5.5-9.5c3.5-2.2,8.7-3.2,15.9,2.1c14.2,10.6,4.2,19.1,4.2,19.1
			l-6.3,7.4l-5.3-2.6"/>
		<line class="st3" x1="362" y1="557.6" x2="381.9" y2="589.5"/>
		<path class="st3" d="M381.3,278.8c0,0-0.5,13.4,14.1,15.5c14.6,2.2,37.1,23.3,17.1,50.3"/>
		<path class="st3" d="M379,584.9c0,0,33.4-59.6,32.8-113.1s-19.3-91.5-19.3-91.5s-6.3-15,4.6-24c0,0,14.7,6.8,15.9-4.5
			c1.6-14.8-13.2-9.4-13.2-9.4s-13.4,0-9.8-14.6c1.7-6.8,8.4-8.7,6.7-17.4c-1.2-6.3-6.1-11.3-12.2-13c-7.8-2.2-19.9-3.4-30.8,4.6
			c-12.3,9.1-16.3,25.7-10.4,39.8c1,2.4,2.3,5,3.8,7.7c0,0,9.8,11.3-10.2,32c0,0-59.6,68.5-54.5,176"/>
		<polyline class="st3" points="328.5,408.7 258.5,635 402.9,650.2 406.5,514.2 		"/>
		<line class="st3" x1="317" y1="445.6" x2="300.1" y2="447.4"/>
		<line class="st3" x1="340.3" y1="377.9" x2="359.5" y2="407"/>
		<line class="st3" x1="345.5" y1="440.4" x2="344.7" y2="448.5"/>
		<line class="st3" x1="338.1" y1="484.7" x2="336.6" y2="494"/>
		<line class="st3" x1="329" y1="541.1" x2="327.2" y2="552.3"/>
		<line class="st3" x1="377.9" y1="469.6" x2="410.8" y2="488.8"/>
		<line class="st3" x1="406.1" y1="525.6" x2="430.1" y2="520"/>
		<path class="st3" d="M352.3,644.9l16.4,94.2c-25.8,4.8-28.6,24.7-28.6,24.7l50.4-20l7.9-93.5"/>
		<polyline class="st3" points="292.8,638.6 283,717.4 250.3,708.2 301.9,741.4 329.9,642.5 		"/>
		<path class="st3" d="M361.7,304.5c0,0-9.5,6.1-24.4,4.5"/>
		<path class="st3" d="M358.4,285.4c0,0-2.9,10.8,17.8,10.5"/>
		<path class="st3" d="M369.4,280.3c0,0-3,13,15.1,17.1"/>
		<path class="st3" d="M220.3,622c0,0-14.3-9.8-49.3-7.5l-13.1,56.7l-24.4-3.2c3.4,0.7,36,20.2,36,20.2s4.5-25,22.5-43.3
			c3.4-3.4,62.1,12.4,62.1,12.4"/>
		<path class="st3" d="M203.6,616.2c0,0,6.2,16.1,3.2,29.8"/>
		<path class="st3" d="M217.6,547.6c0,0-38.5,16-51.9,29.1l6.9,15.1l-18.9-4.5c7.6-38.7,57.4-62.5,57.4-62.5"/>
		<path class="st3" d="M216.7,498.8l29.8-10.9c0,0,3.1,16.5-10.9,19.4S216.7,498.8,216.7,498.8L216.7,498.8z"/>
		<path class="st3" d="M251.9,505.3c0,0-17.6,19.4-38.9,8.8c-13-6.5-20.9-20.5-19.2-34.9c1-9,5.8-19.1,19.5-25.7
			c5.8-2.8,12.2-4,18.5-3.1c4.7,0.7,10.1,2.6,15,7.1c0,0-8.5,5.1-27.7,2.2"/>
		<path class="st3" d="M206.5,467.7c0,0,23.3,4.2,40.2-2.5"/>
		<path class="st3" d="M231.8,450.4l12.4-59.8c0,0,14,16.2,36.6-2"/>
		<path class="st3" d="M260.2,318.5c0,0,13.9,24.8,20.6,29.4c6.7,4.6-37.1-9.1-46-26.6c0,0-22.3,51.8,17.2,59.4"/>
		<line class="st3" x1="240.3" y1="359" x2="247.4" y2="351.9"/>
		<path class="st3" d="M224.5,335.7c0,0-16.2-20.2,1-43.3c0,0,20.7-24.4,50-9.8s28.1,34.9,20.8,55.9c0,0-4.4,9.5-12.8,16.1
			c-7.5,5.9-7.6,18.5-6.4,23.4s8.8,25.2,8.8,25.2"/>
		<path class="st3" d="M301.5,266.6c0,0-23.8-3.7-20,19.3"/>
		<path class="st3" d="M294.5,297.4c0,0,14,3.4,18.9-11.5"/>
		<path class="st3" d="M313.9,417c0,0-20.6-24.7-45.6-6.6s-7.4,60.5-7.4,60.5s2.2,10.2,14.9,6.4c12.7-3.8,13.5,0.9,13.5,0.9"/>
		<path class="st3" d="M296.2,405.2c0,0-5.8-15,12.4-24.4c0,0,9.6,14.6-4.3,28.1"/>
		<path class="st3" d="M255,436.6c0,0,11.1-3.7,18.6-20.8c0,0,17.9,19,33.8,14.3"/>
		<line class="st3" x1="271.3" y1="443.6" x2="268.8" y2="453.7"/>
		<polyline class="st3" points="811.3,479.2 793.5,528.2 773.2,678.4 		"/>
		<path class="st3" d="M776.6,702.3h-77.9l31.6-23.9c0,0,20.7-287.6,27.6-303.5"/>
		<path class="st3" d="M787,576.1l18.3,71.4L787,665.5h48.5l-13.9-221.2c0,0,15.2-52.5,13.9-100.3c-0.8-29.7-24.1-66.8-24.1-66.8
			s8.1-11-0.1-23.2c0,0-8.6,6-22.5-7.4c0,0-24.1-22.2-35-11.8"/>
		<path class="st3" d="M755.9,467.5c0,0,46-7.5,65.7-23.2"/>
		<path class="st3" d="M805,356.7l-83.9,29.5l-52.5,18.5c0,0-15.4,7.6-20.2-3.8c-4.7-11.4,8-17.4,8-17.4l64.7-30.7l75-35.6"/>
		<path class="st3" d="M760.3,232.1c0,0-13.4,36.7-4.4,52s25.8,14.4,25.8,14.4l-12.2,24.7"/>
		<circle class="st5" cx="750.1" cy="259.9" r="13.6"/>
		<circle class="st5" cx="784" cy="266.4" r="13.6"/>
		<path class="st3" d="M647.7,398.8h-29.5c0,0-5.2-0.5-5.2,4.6c0,2,1.3,2.8,2.4,3.3c0.8,0.4,1.7,0.5,2.6,0.5h27.2"/>
	</g>
</g>
</svg>
